<?xml version="1.0" encoding="UTF-8" standalone="no"?>
<svg
   version="1.1"
   id="Layer_1"
   x="0px"
   y="0px"
   width="122.879px"
   height="119.799px"
   viewBox="0 0 122.879 119.799"
   enable-background="new 0 0 122.879 119.799"
   xml:space="preserve"
   sodipodi:docname="genshin-coop.svg"
   inkscape:version="1.3.2 (091e20e, 2023-11-25, custom)"
   inkscape:export-filename="genshin-coop.png"
   inkscape:export-xdpi="400.00363"
   inkscape:export-ydpi="400.00363"
   xmlns:inkscape="http://www.inkscape.org/namespaces/inkscape"
   xmlns:sodipodi="http://sodipodi.sourceforge.net/DTD/sodipodi-0.dtd"
   xmlns="http://www.w3.org/2000/svg"
   xmlns:svg="http://www.w3.org/2000/svg"><defs
     id="defs1"><style
       id="style1">.cls-1{fill:#fff;}.cls-2{fill:none;}</style></defs><sodipodi:namedview
     id="namedview1"
     pagecolor="#ffffff"
     bordercolor="#000000"
     borderopacity="0.25"
     inkscape:showpageshadow="2"
     inkscape:pageopacity="0.0"
     inkscape:pagecheckerboard="0"
     inkscape:deskcolor="#d1d1d1"
     showgrid="false"
     inkscape:zoom="4.7986861"
     inkscape:cx="91.691765"
     inkscape:cy="52.82696"
     inkscape:window-width="1920"
     inkscape:window-height="1009"
     inkscape:window-x="-8"
     inkscape:window-y="-8"
     inkscape:window-maximized="1"
     inkscape:current-layer="Layer_1" /><g
     id="g1"><path
       d="M49.988,0h0.016v0.007C63.803,0.011,76.298,5.608,85.34,14.652c9.027,9.031,14.619,21.515,14.628,35.303h0.007v0.033v0.04 h-0.007c-0.005,5.557-0.917,10.905-2.594,15.892c-0.281,0.837-0.575,1.641-0.877,2.409v0.007c-1.446,3.66-3.315,7.12-5.547,10.307 l29.082,26.139l0.018,0.016l0.157,0.146l0.011,0.011c1.642,1.563,2.536,3.656,2.649,5.78c0.11,2.1-0.543,4.248-1.979,5.971 l-0.011,0.016l-0.175,0.203l-0.035,0.035l-0.146,0.16l-0.016,0.021c-1.565,1.642-3.654,2.534-5.78,2.646 c-2.097,0.111-4.247-0.54-5.971-1.978l-0.015-0.011l-0.204-0.175l-0.029-0.024L78.761,90.865c-0.88,0.62-1.778,1.209-2.687,1.765 c-1.233,0.755-2.51,1.466-3.813,2.115c-6.699,3.342-14.269,5.222-22.272,5.222v0.007h-0.016v-0.007 c-13.799-0.004-26.296-5.601-35.338-14.645C5.605,76.291,0.016,63.805,0.007,50.021H0v-0.033v-0.016h0.007 c0.004-13.799,5.601-26.296,14.645-35.338C23.683,5.608,36.167,0.016,49.955,0.007V0H49.988L49.988,0z M50.004,11.21v0.007h-0.016 h-0.033V11.21c-10.686,0.007-20.372,4.35-27.384,11.359C15.56,29.578,11.213,39.274,11.21,49.973h0.007v0.016v0.033H11.21 c0.007,10.686,4.347,20.367,11.359,27.381c7.009,7.012,16.705,11.359,27.403,11.361v-0.007h0.016h0.033v0.007 c10.686-0.007,20.368-4.348,27.382-11.359c7.011-7.009,11.358-16.702,11.36-27.4h-0.006v-0.016v-0.033h0.006 c-0.006-10.686-4.35-20.372-11.358-27.384C70.396,15.56,60.703,11.213,50.004,11.21L50.004,11.21z"
       id="path1" /></g><g
     id="Livello_10"
     data-name="Livello 10"
     transform="matrix(0.2476211,0,0,0.2476211,-178.57421,-25.921157)"
     style="mix-blend-mode:overlay;fill-rule:evenodd"><path
       class="cls-1"
       d="m 912.41815,299.21294 c 0,0 -64.2061,-41.90539 -30.3887,-116.65125 0,0 -38.04458,17.84808 -38.04458,50.23763 0,45.21199 39.14365,58.63562 68.43328,66.41362 z"
       id="path1-4"
       style="fill:#000000;fill-rule:evenodd;stroke-width:0.939372" /><path
       class="cls-1"
       d="m 904.08591,337.37964 c 0,14.88905 -22.05646,15.25541 -22.05646,15.25541 1.28694,16.9087 27.2418,14.14695 27.06332,-11.39459 -0.17848,-25.54153 -16.22296,-26.83787 -53.54423,-28.30329 -37.32126,-1.46542 -53.48786,-43.38021 -53.48786,-43.38021 0,0 -14.50391,43.92505 16.10085,61.57586 30.60475,17.6508 62.21463,-6.98893 67.54087,-7.51498 5.32624,-0.52605 18.38351,-1.12725 18.38351,13.7618 z"
       id="path2"
       style="fill:#000000;fill-rule:evenodd;stroke-width:0.939372" /><path
       class="cls-1"
       d="m 1003.03,232.79932 c 0,-32.34258 -38.04458,-50.23763 -38.04458,-50.23763 33.81741,74.74586 -30.38869,116.65125 -30.38869,116.65125 29.26145,-7.778 68.43327,-21.20163 68.43327,-66.41362 z"
       id="path3"
       style="fill:#000000;fill-rule:evenodd;stroke-width:0.939372" /><path
       class="cls-1"
       d="m 1044.9354,269.55696 c 0,0 -16.176,41.9054 -53.48786,43.38021 -37.31187,1.47482 -53.39392,2.75236 -53.54422,28.30329 -0.1503,25.55093 25.77638,28.30329 27.06332,11.39459 0,0 -22.05647,-0.36636 -22.05647,-15.25541 0,-14.88905 13.04788,-14.33482 18.37413,-13.78998 5.32624,0.54483 36.9549,25.18457 67.5503,7.51497 30.5953,-17.66959 16.1008,-61.54767 16.1008,-61.54767 z"
       id="path4"
       style="fill:#000000;fill-rule:evenodd;stroke-width:0.939372" /><path
       class="cls-1"
       d="m 946.21676,370.38919 c -8.30405,0 -18.39291,-9.68493 -18.39291,-25.56033 l 0.0752,-3.92657 a 25.193966,25.193966 0 0 1 8.45435,-18.39291 c 9.33737,-8.25708 25.01549,-16.50477 43.91566,-17.84808 36.39124,-2.57388 64.87304,-29.76871 38.04454,-86.75103 0,0 1.287,46.49893 -31.98559,67.08997 -33.27257,20.59104 -52.79272,24.07611 -62.78764,45.55956 v 0 c -9.98558,-21.48345 -29.52453,-24.97791 -62.7877,-45.55956 -33.26318,-20.58165 -31.93866,-67.08997 -31.93866,-67.08997 -26.82848,56.98232 1.65329,84.17715 38.04458,86.75103 18.90017,1.34331 34.5689,9.591 43.90626,17.84808 a 25.12821,25.12821 0 0 1 8.45435,18.39291 l 0.0752,3.92657 c 0,15.8754 -10.08886,25.56033 -18.39291,25.56033 a 27.476641,27.476641 0 0 1 -9.39372,-1.54058 12.127297,12.127297 0 0 0 -9.83523,0.7515 l -2.08541,1.10846 c 32.10775,24.55519 43.87809,60.73042 43.87809,60.73042 0,0 11.80791,-36.14704 44.03777,-60.73042 l -2.08541,-1.10846 a 12.117903,12.117903 0 0 0 -9.83522,-0.7515 27.439066,27.439066 0 0 1 -9.36555,1.54058 z m -22.75159,41.17268 c 0,-5.01624 -11.58247,-20.58164 -11.58247,-20.58164 a 19.520157,19.520157 0 0 0 11.58247,-8.21012 19.520157,19.520157 0 0 0 11.58246,8.21012 c 0,0 -11.58246,15.556 -11.58246,20.58164 z m 5.47654,-32.26743 a 32.793488,32.793488 0 0 1 -5.43897,-4.88474 32.502283,32.502283 0 0 1 -5.42957,4.88474 12.21184,12.21184 0 0 1 -6.96075,2.10419 h -6.29379 c 0,0 18.04534,-8.64223 18.65593,-18.36473 h 0.0564 c 0.61059,9.7225 18.65594,18.36473 18.65594,18.36473 h -6.2844 a 12.21184,12.21184 0 0 1 -6.96075,-2.10419 z"
       id="path5"
       style="fill:#000000;fill-rule:evenodd;stroke-width:0.939372" /><path
       id="rect5"
       style="fill:none;fill-rule:evenodd;stroke-width:0.939372"
       class="cls-2"
       d="M 775.98371,159.48131 H 1071.0312 V 454.52877 H 775.98371 Z" /></g></svg>
